<?xml version="1.0" standalone="no"?>
<!DOCTYPE svg PUBLIC "-//W3C//DTD SVG 20010904//EN"
 "http://www.w3.org/TR/2001/REC-SVG-20010904/DTD/svg10.dtd">
<svg version="1.0" xmlns="http://www.w3.org/2000/svg"
 width="435.000000pt" height="435.000000pt" viewBox="0 0 435.000000 435.000000"
 preserveAspectRatio="xMidYMid meet">
<metadata>
Created by potrace 1.14, written by Peter Selinger 2001-2017
</metadata>
<g transform="translate(0.000000,435.000000) scale(0.100000,-0.100000)"
fill="#000000" stroke="none">
<path d="M2050 4338 c-14 -6 -68 -11 -120 -12 -56 -2 -105 -8 -120 -16 -13 -7
-43 -15 -65 -18 -22 -2 -47 -8 -55 -12 -8 -4 -23 -6 -32 -5 -10 2 -18 -2 -18
-8 0 -5 -3 -7 -7 -4 -3 4 -11 3 -17 -2 -7 -6 -25 -12 -41 -15 -17 -3 -31 -10
-33 -16 -2 -5 -10 -10 -18 -10 -15 0 -115 -47 -124 -59 -3 -3 -12 -7 -20 -9
-8 -2 -24 -12 -36 -23 -11 -10 -23 -17 -26 -14 -2 3 -13 -4 -23 -15 -10 -11
-23 -20 -28 -20 -5 0 -29 -16 -53 -35 -23 -19 -47 -35 -54 -35 -6 0 -8 -4 -5
-10 3 -5 2 -10 -4 -10 -15 0 -141 -125 -141 -140 0 -7 -2 -11 -5 -8 -6 6 -75
-60 -75 -72 0 -4 -15 -21 -32 -37 -18 -16 -34 -36 -36 -44 -2 -7 -7 -16 -11
-19 -4 -3 -18 -21 -31 -40 -13 -19 -29 -38 -35 -42 -5 -4 -6 -8 -2 -8 4 0 -6
-20 -23 -45 -17 -25 -27 -45 -23 -45 4 0 3 -4 -3 -8 -16 -10 -74 -128 -67
-136 4 -3 2 -6 -4 -6 -11 0 -36 -50 -29 -57 3 -3 -2 -12 -10 -20 -8 -8 -12
-18 -9 -23 3 -5 1 -11 -5 -15 -6 -4 -8 -11 -5 -16 4 -5 2 -9 -4 -9 -5 0 -8 -9
-6 -20 2 -11 0 -20 -6 -20 -5 0 -9 -8 -9 -18 0 -10 -5 -23 -12 -30 -6 -6 -13
-24 -15 -39 -3 -36 -10 -77 -13 -83 -1 -3 -1 -15 0 -27 1 -13 -3 -23 -8 -23
-15 0 -8 -577 8 -610 1 -3 2 -18 2 -35 0 -16 5 -36 10 -42 6 -7 7 -13 3 -13
-4 0 -1 -8 6 -17 11 -13 11 -15 1 -9 -11 6 -11 4 -3 -10 11 -22 23 -53 27 -74
4 -24 12 -55 14 -57 2 -2 4 -7 5 -13 1 -5 4 -12 5 -15 1 -3 3 -8 5 -12 1 -5 4
-15 8 -23 3 -8 15 -42 27 -75 11 -33 24 -67 27 -75 3 -8 7 -17 8 -20 20 -50
31 -70 38 -70 4 0 6 -4 2 -9 -3 -5 -1 -12 5 -16 6 -4 8 -11 5 -16 -4 -5 -1 -9
4 -9 6 0 11 -5 11 -12 0 -20 43 -108 53 -108 5 0 6 -7 3 -16 -3 -8 -2 -12 4
-9 6 3 10 -3 10 -13 0 -11 7 -25 15 -32 8 -7 12 -16 9 -21 -3 -5 0 -9 6 -9 6
0 9 -4 6 -8 -3 -5 4 -14 14 -22 10 -8 17 -17 14 -22 -3 -4 0 -8 6 -8 6 0 8 -5
5 -10 -3 -6 -1 -10 5 -10 6 0 8 -4 5 -10 -3 -5 -3 -10 2 -10 4 0 21 -23 38
-50 16 -28 33 -50 39 -50 5 0 7 -3 3 -6 -3 -3 -2 -11 4 -18 21 -25 59 -88 59
-97 0 -6 4 -8 9 -4 5 3 12 -4 16 -15 3 -11 11 -20 16 -20 6 0 8 -4 5 -8 -3 -5
4 -15 15 -22 10 -8 19 -20 19 -28 0 -7 5 -10 10 -7 5 3 10 0 10 -9 0 -8 3 -16
8 -18 4 -1 20 -22 35 -45 16 -23 35 -44 43 -47 8 -3 14 -12 14 -21 0 -8 7 -15
15 -15 8 0 14 -3 14 -7 -3 -18 1 -33 9 -31 9 4 100 -90 94 -97 -3 -3 5 -5 18
-5 13 0 21 -2 18 -5 -5 -6 59 -75 70 -75 3 0 25 -20 48 -44 23 -25 44 -43 47
-40 2 2 16 -7 30 -20 15 -14 27 -22 27 -19 0 4 10 -2 23 -13 12 -11 34 -26 50
-34 15 -7 27 -17 27 -22 0 -4 8 -8 18 -8 11 0 27 -9 37 -20 10 -11 29 -20 42
-20 16 0 22 -4 17 -12 -5 -8 0 -9 14 -6 12 4 22 2 22 -4 0 -5 4 -7 9 -4 5 4
11 2 13 -3 1 -5 19 -12 38 -14 19 -3 36 -6 38 -7 4 -4 21 -7 42 -9 27 -1 27
-42 0 -59 -12 -7 -18 -17 -15 -22 3 -6 2 -10 -4 -10 -5 0 -13 -9 -16 -20 -4
-11 -10 -18 -15 -15 -4 3 -10 -10 -14 -28 -9 -47 -11 -56 -19 -63 -4 -4 -7
-28 -7 -54 0 -50 16 -71 73 -100 15 -7 27 -17 27 -22 0 -5 45 -8 100 -7 60 1
98 5 97 11 -1 6 6 12 16 13 31 6 97 54 99 73 2 32 4 37 11 49 5 7 4 13 -1 13
-5 0 -17 16 -26 35 -9 19 -21 37 -26 40 -5 3 -17 23 -27 43 -9 20 -25 46 -35
56 -19 21 -19 50 2 69 9 8 11 9 6 0 -4 -8 1 -11 14 -10 11 1 20 4 20 7 0 6 17
10 53 11 9 0 17 6 17 12 0 7 4 6 10 -3 6 -10 10 -11 10 -3 0 7 3 12 8 12 4 -1
23 4 42 12 19 7 38 12 43 11 4 -1 7 3 7 9 0 6 7 8 16 5 8 -3 13 -2 10 2 -2 4
15 16 37 27 23 11 44 22 47 25 9 10 60 40 60 36 0 -5 36 24 71 56 10 10 24 18
29 18 6 0 27 17 47 38 20 20 39 37 42 37 3 0 5 3 4 7 -2 5 1 7 6 5 4 -1 36 26
70 61 34 34 66 60 72 57 5 -4 9 -1 9 5 0 10 40 56 113 131 15 16 25 29 22 29
-4 0 6 13 22 29 37 37 68 75 69 81 0 3 13 19 29 36 17 17 37 41 45 54 8 12 21
28 28 36 6 7 12 17 12 23 0 5 10 17 22 25 12 9 18 16 13 16 -5 0 3 12 17 28
14 15 29 37 33 50 3 12 11 22 16 22 6 0 7 5 4 10 -3 5 -1 10 5 10 10 0 29 37
26 52 0 4 7 13 17 20 10 8 19 21 20 29 2 9 11 24 20 33 9 10 15 21 12 26 -3 5
0 12 5 15 12 7 34 55 32 68 -1 4 3 7 10 7 6 0 9 3 6 6 -4 3 9 39 28 80 19 41
34 82 34 90 0 7 4 14 9 14 5 0 8 8 6 18 -1 9 0 22 4 27 3 6 6 12 7 15 0 3 6
17 12 31 6 15 12 35 14 45 2 11 6 22 11 25 4 3 9 26 11 52 2 26 9 54 16 62 7
8 9 15 5 15 -4 0 -3 6 2 13 5 6 9 33 9 59 -1 25 2 44 5 42 4 -2 7 8 8 21 4 58
6 65 16 65 5 0 3 5 -5 10 -8 5 -10 10 -5 10 6 0 10 41 10 104 0 57 -3 102 -7
99 -5 -2 -4 6 1 19 4 13 7 38 5 56 -2 22 1 30 9 26 8 -5 8 -2 0 7 -16 17 -17
53 -1 43 7 -5 8 -3 2 7 -5 8 -10 28 -11 44 -2 29 -10 70 -13 70 -1 0 -8 50
-12 93 -1 6 -5 12 -9 12 -5 0 -5 7 -2 17 4 9 2 14 -3 11 -5 -4 -10 4 -10 15
-4 60 -9 84 -23 101 -14 17 -14 18 -1 12 12 -6 12 -5 -1 6 -9 7 -14 19 -11 26
2 7 1 19 -2 27 -3 9 -4 17 -3 19 1 1 -5 11 -13 20 -8 10 -16 28 -17 39 -2 12
-15 51 -29 86 -14 35 -27 73 -30 84 -2 11 -9 24 -15 27 -6 4 -10 9 -9 11 3 7
-24 64 -35 71 -5 4 -6 8 -2 8 5 0 1 7 -7 16 -9 8 -14 19 -11 24 3 4 -2 10 -10
14 -8 3 -15 12 -15 21 0 8 -4 15 -9 15 -5 0 -14 14 -21 30 -7 17 -16 30 -21
30 -5 0 -9 7 -9 16 0 8 -4 13 -9 10 -5 -3 -16 10 -25 29 -9 19 -24 39 -34 44
-9 6 -14 11 -10 11 4 0 -32 39 -81 88 -100 98 -151 145 -151 135 0 -3 -10 5
-23 18 -13 13 -30 25 -38 27 -7 2 -22 12 -32 23 -10 11 -22 17 -27 14 -4 -3
-10 2 -14 10 -3 8 -14 15 -24 15 -10 0 -27 9 -37 20 -10 11 -22 17 -26 14 -5
-3 -9 0 -9 6 0 6 -4 9 -9 6 -5 -4 -11 -1 -13 4 -2 6 -10 13 -18 15 -39 8 -60
18 -60 27 0 5 -4 7 -9 3 -5 -3 -12 -1 -16 5 -4 6 -11 8 -16 5 -5 -4 -9 -1 -9
5 0 7 -7 10 -15 6 -8 -3 -15 -1 -15 5 0 6 -4 8 -9 4 -5 -3 -13 0 -16 6 -4 5
-13 8 -21 5 -8 -3 -14 -1 -14 4 0 6 -3 9 -7 9 -17 -4 -93 14 -93 21 0 5 -19
10 -42 13 -39 4 -83 13 -83 17 0 1 -18 3 -40 5 -22 2 -53 7 -70 10 -57 10
-260 12 -285 3z"/>
</g>
</svg>
